<svg xmlns="http://www.w3.org/2000/svg" width="140" height="140" viewBox="0 0 140 140"><g transform="translate(0 0)" fill="none"><path d="M70,0A70,70,0,1,1,23.322,17.834,70,70,0,0,1,70,0Z" stroke="none"/><path d="M 70 6 C 54.14571380615234 6 38.99504852294922 11.78572082519531 27.33866882324219 22.29149627685547 C 13.57821655273438 34.69264221191406 6 51.63585662841797 6 70 C 6 105.2897186279297 34.71028900146484 134 70 134 C 105.2897186279297 134 134 105.2897186279297 134 70 C 134 34.71028900146484 105.2897186279297 6 70 6 M 70 0 C 108.6599273681641 0 140 31.34007263183594 140 70 C 140 108.6599273681641 108.6599273681641 140 70 140 C 31.34007263183594 140 0 108.6599273681641 0 70 C 0 49.35559844970703 8.936813354492188 30.79850006103516 23.32188415527344 17.83442687988281 C 35.55850219726562 6.8056640625 51.98447418212891 0 70 0 Z" stroke="none" fill="#b5131d"/></g><g transform="translate(-1241 -607)"><circle cx="38" cy="38" r="38" transform="translate(1273 639)" fill="none"/><path d="M31.71,26.944,52.9,5.741A3.368,3.368,0,0,0,48.131.991L26.944,22.178,5.757.991A3.37,3.37,0,1,0,.991,5.757L22.178,26.944.991,48.131A3.37,3.37,0,1,0,5.757,52.9h0L26.944,31.71,48.131,52.9A3.37,3.37,0,1,0,52.9,48.131Z" transform="translate(1284.301 650.303)" fill="#b5131d" stroke="#b5131d" stroke-width="1"/></g></svg>