<svg xmlns="http://www.w3.org/2000/svg" width="134.8" height="32" viewBox="0 0 134.8 32">
  <g id="Gruppe_3333" data-name="Gruppe 3333" transform="translate(-118.579 -243.496)">
    <g id="Gruppe_2857" data-name="Gruppe 2857" transform="translate(161.078 251.162)">
      <path id="Pfad_1712" data-name="Pfad 1712" d="M224.771,281.214V266.651h2.8v12.1H232.3v2.459Z" transform="translate(-224.771 -265.43)" fill="#fff"/>
      <path id="Pfad_1713" data-name="Pfad 1713" d="M250.4,286.8c-3.042,0-5.027-1.575-5.027-5.394,0-3.344,2.222-5.761,5.48-5.761,3.064,0,5.027,1.683,5.027,5.372A5.433,5.433,0,0,1,250.4,286.8Zm.259-8.824c-1.23,0-2.438.949-2.438,3.15s.82,3.322,2.395,3.322c1.359,0,2.416-1.1,2.416-3.279C253.033,279.093,252.278,277.971,250.66,277.971Z" transform="translate(-237.067 -270.795)" fill="#fff"/>
      <path id="Pfad_1714" data-name="Pfad 1714" d="M279.854,286.806c-2.977,0-4.833-1.553-4.833-5.2,0-3.344,1.748-5.912,5.459-5.912a7.461,7.461,0,0,1,2.352.367l-.431,2.373a5.454,5.454,0,0,0-2.007-.41c-1.64,0-2.482,1.316-2.482,3.3,0,1.834.669,3.107,2.5,3.107a5.185,5.185,0,0,0,2.093-.431l.367,2.309A8.968,8.968,0,0,1,279.854,286.806Z" transform="translate(-254.761 -270.827)" fill="#fff"/>
      <path id="Pfad_1715" data-name="Pfad 1715" d="M303.211,279.406l-3.323-5.307v5.307h-2.762V265.771c-.518-.086-1.252-.173-1.877-.216v-1.726a32.019,32.019,0,0,1,4.639-.194v9.515l3.128-4.466h3.366l-3.776,4.9,4.056,5.826Z" transform="translate(-266.834 -263.622)" fill="#fff"/>
      <path id="Pfad_1716" data-name="Pfad 1716" d="M343.863,281.13c-.971,0-2.416-.043-4.25-.043V266.545c1.23-.065,3.064-.108,4.833-.108,3.128,0,4.876,1.273,4.876,3.6a3.419,3.419,0,0,1-2.2,3.258v.043a3.253,3.253,0,0,1,2.611,3.258C349.732,278.842,348.135,281.13,343.863,281.13Zm.129-12.449c-.6,0-1.122.021-1.575.043v3.819c.345.021.69.021,1.143.021,1.92,0,2.784-.776,2.784-2.071C346.344,269.414,345.7,268.681,343.993,268.681Zm-.345,5.976c-.194,0-.928,0-1.23.022V278.8c.345.021,1.035.065,1.553.065,1.834,0,2.761-.906,2.761-2.179C346.733,275.3,345.568,274.657,343.648,274.657Z" transform="translate(-293.311 -265.302)" fill="#fff"/>
      <path id="Pfad_1717" data-name="Pfad 1717" d="M373.7,286.8c-3.042,0-5.028-1.575-5.028-5.394,0-3.344,2.222-5.761,5.48-5.761,3.063,0,5.027,1.683,5.027,5.372A5.433,5.433,0,0,1,373.7,286.8Zm.259-8.824c-1.23,0-2.438.949-2.438,3.15s.82,3.322,2.395,3.322c1.359,0,2.416-1.1,2.416-3.279C376.33,279.093,375.574,277.971,373.956,277.971Z" transform="translate(-310.653 -270.795)" fill="#fff"/>
      <path id="Pfad_1718" data-name="Pfad 1718" d="M403.291,286.8c-3.042,0-5.027-1.575-5.027-5.394,0-3.344,2.222-5.761,5.48-5.761,3.064,0,5.027,1.683,5.027,5.372A5.433,5.433,0,0,1,403.291,286.8Zm.259-8.824c-1.23,0-2.438.949-2.438,3.15s.82,3.322,2.395,3.322c1.359,0,2.416-1.1,2.416-3.279C405.923,279.093,405.168,277.971,403.55,277.971Z" transform="translate(-328.315 -270.795)" fill="#fff"/>
      <path id="Pfad_1719" data-name="Pfad 1719" d="M433.358,279.406l-3.323-5.307v5.307h-2.762V265.771c-.518-.086-1.251-.173-1.877-.216v-1.726a32.019,32.019,0,0,1,4.639-.194v9.515l3.128-4.466h3.366l-3.776,4.9,4.056,5.826Z" transform="translate(-344.508 -263.622)" fill="#fff"/>
    </g>
    <path id="Pfad_1711" data-name="Pfad 1711" d="M151.806,251.159l-15.577-7.52a1.444,1.444,0,0,0-1.257,0l-15.577,7.52a1.441,1.441,0,0,0-.816,1.3v21.6a1.444,1.444,0,0,0,2.072,1.3l15.487-7.464a1.322,1.322,0,0,0,.123-.067l.091-.055a1.442,1.442,0,0,0,.693-1.232V251.113l-2.888,1.4V265.64l-12.689,6.116V253.363l14.133-6.822,14.133,6.822v18.486l-5.715-2.495-3.422,1.655,10,4.367a1.444,1.444,0,0,0,2.022-1.322v-21.6A1.442,1.442,0,0,0,151.806,251.159Z" transform="translate(0)" fill="#0f8c77"/>
  </g>
</svg>
