<svg xmlns="http://www.w3.org/2000/svg" width="204.301" height="119.212" viewBox="0 0 204.301 119.212">
  <g id="icon" transform="translate(0 -72.906)">
    <path id="Pfad_1745" data-name="Pfad 1745" d="M216.974,192.118H91.218a17.893,17.893,0,0,1-17.872-17.872V151.183a3.405,3.405,0,0,1,6.81,0v23.063a11.074,11.074,0,0,0,11.062,11.062H216.974a11.076,11.076,0,0,0,11.062-11.062V90.778a11.076,11.076,0,0,0-11.062-11.062H91.218A11.074,11.074,0,0,0,80.156,90.778v22.786a3.405,3.405,0,1,1-6.81,0V90.778A17.893,17.893,0,0,1,91.218,72.906H216.974a17.893,17.893,0,0,1,17.872,17.872v83.468A17.893,17.893,0,0,1,216.974,192.118Z" transform="translate(-30.545)" fill="#19756c"/>
    <path id="Pfad_1746" data-name="Pfad 1746" d="M241.638,97.066a3.4,3.4,0,1,0-4.6-5.019L168.764,156.11,99.477,92.253a3.406,3.406,0,0,0-4.606,5.019c53.214,51.637,31.046,29.469,71.591,65.966a3.4,3.4,0,0,0,4.6,0Z" transform="translate(-45.215 -13.46)" fill="#19756c"/>
    <path id="Pfad_1747" data-name="Pfad 1747" d="M67.493,176.025H26.9a3.405,3.405,0,0,1,0-6.81H67.5a3.405,3.405,0,1,1,0,6.81Z" transform="translate(-9.783 -40.108)" fill="#19756c"/>
    <path id="Pfad_1748" data-name="Pfad 1748" d="M28.368,135.242H3.405a3.405,3.405,0,0,1,0-6.81H28.368a3.405,3.405,0,0,1,0,6.81Z" transform="translate(0 -23.124)" fill="#19756c"/>
    <path id="Pfad_1749" data-name="Pfad 1749" d="M33.057,216.808H14.663a3.4,3.4,0,1,1,0-6.81h18.4a3.4,3.4,0,1,1,0,6.81Z" transform="translate(-4.688 -57.092)" fill="#19756c"/>
  </g>
</svg>
