<svg xmlns="http://www.w3.org/2000/svg" viewBox="0 0 24 24"><defs><style>.cls-1{fill:none;}.cls-2{fill:#0f8c77;}</style></defs><g id="unsichtbares_Rechteck" data-name="unsichtbares Rechteck"><rect class="cls-1" x="-0.21" y="0.17" width="24" height="24"/></g><g id="Spinner"><g id="Ellipse_56" data-name="Ellipse 56"><circle class="cls-1" cx="11.79" cy="12.17" r="11.5"/><path class="cls-2" d="M11.79,23.67A11.51,11.51,0,0,1,.29,12.17c0-.18,0-.37,0-.55a1,1,0,0,1,1.05-.95,1,1,0,0,1,.95,1.05c0,.15,0,.3,0,.45a9.5,9.5,0,1,0,9.5-9.5,1,1,0,0,1,0-2,11.5,11.5,0,0,1,0,23Z"/></g></g></svg>